PathFileType	4	(X/Y/Z)	C:\Users\dbl\Desktop\20210112(1)\20210112\bx_y_5_501.trc
DataRate	CameraRate	NumFrames	NumMarkers	Units	OrigDataRate	OrigDataStartFrame	OrigNumFrames
50.00	50.00	       4	43	mm	50.00	260	       519
Frame#	Time	Top.Head			R.Acromium			L.Acromium			Sternum			R.ASIS			L.ASIS			V.Sacral			R.Thigh.Upper			R.Thigh.Front			R.Thigh.Rear			R.Knee.Lat			R.Knee.Med			R.Shank.Upper			R.Shank.Front			R.Shank.Rear			R.Ankle.Lat			R.Midfoot.Lat			R.Toe.Lat			R.Toe.Tip			R.Toe.Med			R.Ankle.Med			R.Midfoot.Sup			R.Heel			L.Thigh.Upper			L.Thigh.Front			L.Thigh.Rear			L.Knee.Lat			L.Knee.Med			L.Shank.Upper			L.Shank.Front			L.Shank.Rear			L.Ankle.Lat			L.Midfoot.Lat			L.Toe.Lat			L.Toe.Tip			L.Toe.Med			L.Ankle.Med			L.Midfoot.Sup			L.Heel			origin1 front left			origin2 front right			origin 3 back right			origin 4 back leftt			
		X1	Y1	Z1	X2	Y2	Z2	X3	Y3	Z3	X4	Y4	Z4	X5	Y5	Z5	X6	Y6	Z6	X7	Y7	Z7	X8	Y8	Z8	X9	Y9	Z9	X10	Y10	Z10	X11	Y11	Z11	X12	Y12	Z12	X13	Y13	Z13	X14	Y14	Z14	X15	Y15	Z15	X16	Y16	Z16	X17	Y17	Z17	X18	Y18	Z18	X19	Y19	Z19	X20	Y20	Z20	X21	Y21	Z21	X22	Y22	Z22	X23	Y23	Z23	X24	Y24	Z24	X25	Y25	Z25	X26	Y26	Z26	X27	Y27	Z27	X28	Y28	Z28	X29	Y29	Z29	X30	Y30	Z30	X31	Y31	Z31	X32	Y32	Z32	X33	Y33	Z33	X34	Y34	Z34	X35	Y35	Z35	X36	Y36	Z36	X37	Y37	Z37	X38	Y38	Z38	X39	Y39	Z39	X40	Y40	Z40	X41	Y41	Z41	X42	Y42	Z42	X43	Y43	Z43	

260	5.180	-684.27667	91.10141	1849.44446	-664.60938	-82.75629	1541.32275	-682.34900	277.38336	1541.55310	-606.55750	94.58585	1423.48096	-619.45435	-7.31643	1053.13379	-605.58215	224.60136	1072.74121	-816.51764	97.27383	1047.54871	-653.57843	-49.12895	846.65588	-610.27161	-5.87530	806.18500	-703.68927	-49.67982	708.59949	-720.34869	-26.05788	614.93933	-706.37286	81.04872	576.15228	-734.04016	-23.11465	567.46411	-682.93518	18.82728	522.18549	-779.26111	-33.31003	487.73895	-769.12378	-3.98421	206.11865	-666.48297	-68.49089	161.79816	-625.07202	-79.40152	159.49913	-560.68652	-42.90492	161.66991	-603.07385	18.49020	166.80045	-717.31183	78.14860	216.70415	-674.68060	54.77342	158.00073	-794.32556	57.54510	175.26297	-662.68701	279.39844	878.08972	-605.29388	214.68684	824.83942	-710.73358	274.03476	748.92395	-740.45966	250.66692	638.64264	-704.45441	143.27901	574.72333	-743.40100	245.28497	576.01691	-689.21844	204.77271	534.81854	-784.40027	254.73808	502.67087	-772.35498	223.01558	204.90094	-667.32813	299.82507	158.99840	-629.74707	308.23923	160.97812	-562.15106	263.94098	165.43271	-595.26355	224.77155	173.45619	-712.70947	153.19038	217.49466	-675.44568	173.56348	157.32674	-796.94788	172.52470	183.77760	-528.16278	304.23639	146.42772	-517.75293	-72.79376	142.54951	-875.88110	-79.02628	141.08858	-882.63062	296.02118	144.47865	
261	5.200	-680.23920	91.18270	1849.40186	-662.73151	-83.06939	1541.27319	-680.82300	277.12543	1541.38318	-605.60590	94.44584	1423.00854	-621.20428	-7.55794	1052.93079	-607.69110	223.17067	1072.09814	-817.83276	96.83472	1047.85120	-656.36157	-50.50285	847.71100	-611.33502	-6.06275	806.16083	-705.02631	-49.77504	708.40411	-721.23016	-26.46960	615.03351	-707.24353	80.81476	576.03699	-734.88483	-23.37938	567.44299	-683.68695	18.69263	522.17731	-780.05719	-33.72576	487.42737	-769.23151	-4.02096	206.05690	-666.51660	-68.49400	161.79257	-625.05682	-79.41647	159.52911	-560.71344	-42.84974	161.66293	-603.09937	18.51989	166.79643	-717.52716	77.98643	216.81676	-674.71063	54.75426	158.01503	-794.38446	57.41990	175.24092	-664.08777	279.19955	878.19092	-606.57178	214.60736	824.72003	-711.99127	273.94644	748.88324	-741.49677	250.53279	638.55847	-705.05267	143.25351	574.64722	-744.28845	245.29498	575.98895	-689.89160	204.73938	534.84357	-785.07245	254.69923	502.53171	-772.38812	223.00607	204.92744	-667.26538	299.83249	159.00436	-629.73566	308.23386	160.99208	-562.13678	263.90265	165.43579	-595.23444	224.78696	173.47215	-712.74072	153.20016	217.51855	-675.42749	173.56203	157.35039	-796.94305	172.54460	183.75514	-528.14252	304.22409	146.43657	-517.80621	-72.80284	142.49174	-875.81891	-79.02156	141.12733	-882.62457	296.05453	144.49202	
262	5.220	-675.62823	91.27786	1849.30676	-660.65857	-83.37272	1541.18774	-679.13281	276.92224	1541.15710	-604.57898	94.30038	1422.44446	-623.03467	-7.81020	1052.71619	-609.78687	221.71487	1071.46350	-819.29639	96.31568	1048.20923	-659.20972	-51.86459	848.73322	-612.55109	-6.28194	806.13904	-706.57019	-49.75244	708.16876	-722.29724	-26.88671	615.10602	-708.26117	80.56393	575.88104	-735.84399	-23.68291	567.50677	-684.56110	18.50499	522.15649	-780.81903	-33.94056	487.15112	-769.35840	-4.06089	206.01451	-666.55377	-68.48866	161.76865	-625.02081	-79.44603	159.55447	-560.75641	-42.80209	161.65260	-603.11206	18.54815	166.79604	-717.70972	77.81263	216.92804	-674.73541	54.74913	158.00577	-794.44556	57.29222	175.16463	-665.78760	279.01932	878.21967	-608.15295	214.59673	824.51196	-713.55139	273.79617	748.78748	-742.72516	250.35419	638.52075	-705.84229	143.19705	574.66394	-745.35455	245.24229	575.97308	-690.71234	204.65863	534.85840	-785.89240	254.62601	502.42572	-772.39648	223.00830	204.92189	-667.21899	299.86093	159.01839	-629.73303	308.23123	160.98074	-562.14294	263.87848	165.41541	-595.24426	224.82617	173.49039	-712.81952	153.23111	217.55206	-675.41260	173.57745	157.40326	-796.96027	172.54889	183.71355	-528.12823	304.20667	146.43869	-517.84064	-72.84145	142.45132	-875.80927	-79.00869	141.14691	-882.62079	296.09171	144.51408	
263	5.240	-670.35211	91.39848	1849.15100	-658.42773	-83.66240	1541.05334	-677.28052	276.80026	1540.86377	-603.46558	94.11340	1421.79419	-624.94543	-8.07363	1052.48926	-611.79602	220.38943	1070.92627	-820.91040	95.74023	1048.60535	-662.12152	-53.21266	849.71979	-613.95380	-6.54012	806.06982	-708.25116	-49.75357	707.92285	-723.57239	-27.30705	615.12225	-709.46826	80.30774	575.67725	-736.94275	-24.03582	567.61365	-685.56042	18.23642	522.13287	-781.59442	-34.03699	486.91049	-769.48462	-4.10762	205.98090	-666.57635	-68.48059	161.73682	-624.98895	-79.48364	159.56735	-560.81134	-42.77285	161.64835	-603.07990	18.54678	166.80551	-717.82794	77.68340	217.04489	-674.75378	54.75220	157.99068	-794.49823	57.19089	175.06209	-667.77820	278.86786	878.16547	-609.97821	214.66245	824.32135	-715.42554	273.61038	748.66943	-744.15546	250.14873	638.49042	-706.86432	143.11197	574.72852	-746.56781	245.09367	575.92755	-691.69861	204.54808	534.87592	-786.83405	254.52931	502.33038	-772.38507	223.02353	204.87071	-667.20374	299.88806	159.03255	-629.73260	308.23199	160.95909	-562.15961	263.85574	165.38405	-595.31122	224.87877	173.52802	-712.92273	153.28065	217.57780	-675.40027	173.59987	157.50156	-796.99524	172.55354	183.62587	-528.12103	304.19107	146.43198	-517.85809	-72.87219	142.44122	-875.86469	-78.97678	141.15382	-882.62506	296.11804	144.53908	
